<mxfile host="app.diagrams.net" modified="2020-12-02T15:08:33.450Z" agent="5.0 (X11)" etag="lYdISbJbJ2ZgAIHMoa2U" version="13.10.5" type="github">
  <diagram id="1c1o5CAiFKQ2qWv1Bm0-" name="Page-1">
    <mxGraphModel dx="1038" dy="1438" grid="1" gridSize="10" guides="1" tooltips="1" connect="1" arrows="1" fold="1" page="1" pageScale="1" pageWidth="850" pageHeight="1100" math="0" shadow="0">
      <root>
        <mxCell id="0" />
        <mxCell id="1" parent="0" />
        <mxCell id="U64vJchtxze6QyQAgJt1-2" value="client" style="rounded=1;whiteSpace=wrap;html=1;" vertex="1" parent="1">
          <mxGeometry y="10" width="120" height="60" as="geometry" />
        </mxCell>
        <mxCell id="U64vJchtxze6QyQAgJt1-3" value="" style="rounded=1;whiteSpace=wrap;html=1;" vertex="1" parent="1">
          <mxGeometry x="360" y="10" width="120" height="60" as="geometry" />
        </mxCell>
        <mxCell id="U64vJchtxze6QyQAgJt1-4" value="API" style="rounded=1;whiteSpace=wrap;html=1;" vertex="1" parent="1">
          <mxGeometry x="360" y="10" width="40" height="60" as="geometry" />
        </mxCell>
        <mxCell id="U64vJchtxze6QyQAgJt1-6" value="" style="endArrow=classic;html=1;entryX=0;entryY=0.25;entryDx=0;entryDy=0;exitX=1;exitY=0.25;exitDx=0;exitDy=0;" edge="1" parent="1" source="U64vJchtxze6QyQAgJt1-2" target="U64vJchtxze6QyQAgJt1-4">
          <mxGeometry width="50" height="50" relative="1" as="geometry">
            <mxPoint x="120" y="30" as="sourcePoint" />
            <mxPoint x="220" y="30" as="targetPoint" />
          </mxGeometry>
        </mxCell>
        <mxCell id="U64vJchtxze6QyQAgJt1-7" value="" style="endArrow=classic;html=1;entryX=1;entryY=0.75;entryDx=0;entryDy=0;exitX=0;exitY=0.75;exitDx=0;exitDy=0;" edge="1" parent="1" source="U64vJchtxze6QyQAgJt1-4" target="U64vJchtxze6QyQAgJt1-2">
          <mxGeometry width="50" height="50" relative="1" as="geometry">
            <mxPoint x="140" y="130" as="sourcePoint" />
            <mxPoint x="190" y="80" as="targetPoint" />
          </mxGeometry>
        </mxCell>
        <mxCell id="U64vJchtxze6QyQAgJt1-8" value="GET .../rides/12345/summary" style="text;html=1;strokeColor=none;fillColor=none;align=center;verticalAlign=middle;whiteSpace=wrap;rounded=0;" vertex="1" parent="1">
          <mxGeometry x="130" width="210" height="20" as="geometry" />
        </mxCell>
        <mxCell id="U64vJchtxze6QyQAgJt1-9" value="Server" style="text;html=1;strokeColor=none;fillColor=none;align=center;verticalAlign=middle;whiteSpace=wrap;rounded=0;" vertex="1" parent="1">
          <mxGeometry x="420" y="30" width="40" height="20" as="geometry" />
        </mxCell>
        <mxCell id="U64vJchtxze6QyQAgJt1-10" value="Response" style="text;html=1;strokeColor=none;fillColor=none;align=center;verticalAlign=middle;whiteSpace=wrap;rounded=0;" vertex="1" parent="1">
          <mxGeometry x="200" y="60" width="40" height="20" as="geometry" />
        </mxCell>
      </root>
    </mxGraphModel>
  </diagram>
</mxfile>
